<svg width="188" height="188" xmlns="http://www.w3.org/2000/svg" xmlns:xlink="http://www.w3.org/1999/xlink" xml:space="preserve" overflow="hidden"><g transform="translate(-3102 -985)"><g><path d="M3160.57 1126.87 3162.07 1124.69 3162.15 1124.58 3163.55 1122.5 3163.59 1122.44 3164.84 1120.57 3165.26 1119.89 3166.4 1117.92 3166.55 1117.65 3167.75 1115.47 3167.63 1115.67 3168.88 1113.49 3168.93 1113.4 3170.13 1111.27 3170.15 1111.23 3171.19 1109.35 3171.05 1109.61 3171.93 1108.1 3171.74 1108.41 3172.52 1107.16 3172.4 1107.35 3173.08 1106.31 3173 1106.43 3173.73 1105.34 3173.79 1105.25 3174.67 1103.89 3174.61 1103.99 3175.55 1102.59 3175.38 1102.82 3176.47 1101.26 3175.8 1102.14 3176.89 1100.84 3177.47 1100.1 3178.4 1098.8 3178.26 1099 3179.19 1097.75 3179.34 1097.55 3180.28 1096.26 3180.97 1095.18 3181.96 1093.46 3181.71 1093.88 3182.85 1092.06 3182.85 1092.06 3183.99 1090.25 3183.81 1090.53 3184.95 1088.81 3184.59 1089.32 3185.63 1087.92 3185.21 1088.46 3186.46 1086.95 3186.38 1087.04 3187.79 1085.38 3187.88 1085.26 3189.34 1083.49 3189.63 1083.13 3191.14 1081.15 3191.16 1081.12 3192.46 1079.4 3192.29 1079.62 3193.49 1078.12 3193.75 1077.78 3194.63 1076.58 3194.39 1076.9 3195.17 1075.91 3195.96 1074.78 3196.74 1073.54 3197.26 1072.63 3198.14 1070.91 3198.16 1070.89 3199.25 1068.76 3199.19 1068.86 3200.34 1066.68 3200.03 1067.23 3201.22 1065.2 3200.74 1065.96 3201.78 1064.45 3201.66 1064.62 3202.44 1063.53 3202.27 1063.76 3203.05 1062.73 3203.77 1061.65 3204.4 1060.61 3205.11 1059.24 3205.73 1057.84 3205.57 1058.19 3206.24 1056.79 3206.71 1055.69 3207.23 1054.29 3206.68 1055.55 3207.15 1054.62 3207.15 1054.62 3207.51 1053.89 3207.05 1054.74 3207.36 1054.22 3207.65 1053.71 3208.01 1053.03 3208.05 1052.95 3208.52 1052.07 3208.47 1052.18 3209.14 1050.93 3208.77 1051.57 3209.7 1050.06 3209.6 1050.23 3210.53 1048.78 3210.53 1048.78 3211.47 1047.32 3211.35 1047.5 3212.29 1046.1 3212.08 1046.39 3212.97 1045.14 3212.86 1045.29 3213.85 1043.94 3214.38 1043.15 3215.32 1041.65 3215.45 1041.42 3216.28 1040.02 3216.9 1038.85 3217.47 1037.6 3217.84 1036.71 3218.2 1035.72 3217.26 1037.71 3217.62 1037.09 3218.01 1036.37 3218.27 1035.85 3216.84 1038.09 3217.25 1037.57 3217.9 1036.69 3218.32 1036.07 3218.21 1036.22 3218.79 1035.38 3218.66 1035.57 3219.18 1034.84 3219.81 1033.87 3220.17 1033.24 3219.77 1033.88 3219.98 1033.57 3219.98 1033.57C3223.84 1027.78 3222.27 1019.95 3216.48 1016.09 3210.69 1012.23 3202.87 1013.8 3199 1019.59 3197.4 1022 3196.67 1024.89 3196.94 1027.78L3197.05 1028.87 3196.99 1027.67 3196.99 1028.19 3196.99 1029.8 3196.99 1030.53 3196.99 1031.36 3196.99 1033.08 3197.03 1034.02 3197.18 1036.1 3197.16 1035.69 3197.26 1038.13 3197.27 1038.37 3197.43 1040.91 3197.47 1041.43 3197.68 1043.46 3197.69 1043.53 3197.9 1045.45 3197.89 1045.35 3198.04 1046.91 3198.06 1047.04 3198.21 1048.45 3198.17 1048.06 3198.28 1049.36 3198.42 1050.51 3198.63 1051.71 3198.52 1050.94 3198.68 1052.35 3198.75 1052.87 3198.96 1054.22 3198.84 1053.24 3198.95 1054.64 3199.04 1055.49 3199.25 1056.95 3199.4 1057.8 3199.71 1059.26 3199.88 1059.93 3200.35 1061.65 3200.37 1061.75 3200.95 1063.78 3200.86 1063.48 3201.49 1065.92 3201.43 1065.69 3202.06 1068.34 3202.08 1068.46 3202.76 1071.21 3202.71 1071.02 3203.29 1073.52 3203.29 1073.54 3203.76 1075.56 3203.63 1074.92 3203.94 1076.69 3204.03 1077.14 3204.34 1078.59 3204.46 1079.11 3204.83 1080.52 3204.87 1080.67 3205.33 1082.38 3205.61 1083.26 3206.23 1085.03 3205.92 1084.02 3206.55 1086.41 3206.53 1086.34 3207.2 1088.99 3207.2 1088.99 3207.88 1091.64 3207.84 1091.48 3208.51 1094.28 3208.42 1093.85 3208.94 1096.4 3208.85 1095.91 3209.26 1098.46 3209.31 1098.7 3209.77 1101.25 3209.72 1100.91 3210.08 1103.25 3210.18 1103.78 3210.59 1105.86 3210.49 1105.28 3210.75 1106.99 3210.82 1107.4 3211.08 1108.8 3211.07 1108.76 3211.28 1109.91 3211.34 1110.25 3211.55 1111.24 3211.77 1112.1 3212.08 1113.19 3212 1112.91 3212.31 1114.11 3212.15 1113.4 3212.41 1114.7 3212.39 1114.6 3212.65 1115.96 3212.58 1115.57 3212.79 1116.87 3212.95 1117.67 3213.21 1118.81 3213.24 1118.94 3213.5 1120.03 3213.42 1119.71 3213.63 1120.69 3213.66 1120.83 3213.87 1121.77 3214.14 1122.79 3214.4 1123.62 3214.39 1123.57 3214.59 1124.25 3214.24 1122.79 3214.34 1123.37 3214.34 1123.37 3214.45 1123.94 3214.31 1122.94 3214.36 1123.46 3214.5 1124.46 3214.6 1125.03 3214.6 1125.03C3214.79 1126.05 3215.1 1127.04 3215.53 1127.99L3215.79 1128.56 3215.79 1128.56 3216.05 1129.13 3215.36 1127.23 3215.52 1127.81 3215.63 1128.2 3215.84 1128.87 3215.49 1127.42 3215.59 1127.99 3215.69 1128.47 3215.79 1128.94 3215.79 1128.94 3215.9 1129.41 3215.6 1126.67 3215.6 1127.14 3215.6 1127.14C3215.6 1128.17 3215.72 1129.2 3215.97 1130.2L3216.08 1130.61 3216.08 1130.61C3217.76 1137.36 3224.61 1141.47 3231.36 1139.78 3238.11 1138.09 3242.22 1131.25 3240.53 1124.5 3239.69 1121.14 3237.5 1118.27 3234.48 1116.57L3232.82 1115.63 3233.55 1116.08 3232.04 1115.09 3232.8 1115.63 3229.68 1113.24 3229.58 1113.16 3227.29 1111.44 3227.54 1111.63 3225.56 1110.07 3224.88 1109.57 3223.06 1108.33 3223.5 1108.64 3222.04 1107.55 3222.55 1107.95 3220.99 1106.65 3221.52 1107.12 3219.96 1105.66 3219.97 1105.67 3218.36 1104.16 3218.52 1104.31 3216.86 1102.7 3216.54 1102.4 3214.93 1100.95 3214.87 1100.9 3213.42 1099.6 3213.77 1099.93 3212.32 1098.53 3211.67 1097.94 3210.06 1096.59 3210.28 1096.78 3208.56 1095.27 3209.15 1095.83 3207.33 1094.01 3207.46 1094.13 3205.58 1092.21 3206.12 1092.8 3204.25 1090.61 3204.54 1090.97 3202.73 1088.68 3202.45 1088.35 3200.63 1086.22 3201 1086.68 3199.39 1084.6 3199.19 1084.34 3197.78 1082.62 3197.87 1082.73 3196.62 1081.17 3196.55 1081.08 3195.41 1079.68 3194.36 1078.54 3193.11 1077.35 3192.91 1077.16 3191.66 1076.01 3191.12 1075.55 3189.98 1074.61 3189.93 1074.57 3188.84 1073.69 3188.4 1073.35 3187.2 1072.47 3187.59 1072.76 3186.29 1071.72 3185.74 1071.31 3184.28 1070.27 3184.4 1070.35 3183.04 1069.36 3183.1 1069.4 3181.9 1068.52 3181.3 1068.1 3180.1 1067.32 3179.42 1066.9 3178.22 1066.22 3178.7 1066.51 3177.45 1065.73 3177.38 1065.68 3176.03 1064.85 3176.41 1065.1 3175.01 1064.16 3175.31 1064.37 3173.7 1063.23 3172.56 1062.51 3170.79 1061.52 3171.23 1061.77 3169.62 1060.79 3169.83 1060.92 3168.53 1060.09 3168.83 1060.29 3167.69 1059.51 3168.08 1059.79 3166.89 1058.9 3167.16 1059.11 3165.97 1058.18 3164.91 1057.44 3163.51 1056.55 3163.69 1056.67 3162.34 1055.79 3162.33 1055.78 3161.13 1055 3160.08 1054.38 3158.88 1053.76 3161.07 1055.2 3160.18 1054.48 3160.24 1054.52 3159.3 1053.74 3159.44 1053.86 3158.35 1052.92 3158.21 1052.81 3156.96 1051.77 3156.63 1051.5 3155.23 1050.41 3155.37 1050.52 3154.07 1049.48 3153.9 1049.35 3152.76 1048.46 3153.39 1048.99 3152.51 1048.21 3151.95 1047.75 3151.23 1047.17 3151.51 1047.4 3150.88 1046.88 3151.73 1047.65 3151.26 1047.19 3151.26 1047.19 3150.74 1046.67 3149.7 1045.74 3149.18 1045.32 3149.68 1045.74 3149.21 1045.33 3149.14 1045.26 3148.72 1044.9 3147.42 1043.9 3146.95 1043.58 3148.87 1045.16 3148.4 1044.69 3148.86 1045.17 3148.39 1044.65 3148.39 1044.65C3147.8 1044 3147.15 1043.41 3146.43 1042.89L3145.86 1042.47 3146.82 1043.25 3146.36 1042.83 3144.97 1041.77 3144.66 1041.56 3144.66 1041.56C3138.87 1037.7 3131.04 1039.26 3127.18 1045.05 3123.32 1050.85 3124.89 1058.67 3130.68 1062.53 3132.28 1063.6 3134.11 1064.29 3136.03 1064.54L3138 1064.8 3137.91 1064.79 3139.78 1065.05 3139.27 1064.97 3143.59 1065.75 3143.9 1065.8 3147.59 1066.37 3147.63 1066.38 3151.73 1067 3151.78 1067.01 3155.99 1067.63 3155.62 1067.57 3159.42 1068.25 3159.01 1068.17 3162.44 1068.9 3162.42 1068.89 3165.33 1069.51 3165.45 1069.54 3167.99 1070.06 3168.36 1070.13 3170.75 1070.54 3171.34 1070.63 3173.42 1070.89 3173.47 1070.9 3175.18 1071.11 3174.78 1071.05 3176.13 1071.26 3175.58 1071.16 3176.88 1071.42 3176.67 1071.38 3177.87 1071.64 3177.9 1071.64 3179.36 1071.96 3179.99 1072.08 3181.6 1072.34 3182.5 1072.45 3184.27 1072.6 3183.55 1072.52 3185.68 1072.83 3186.59 1072.93 3188.72 1073.09 3188.47 1073.07 3190.71 1073.27 3190.65 1073.27 3192.78 1073.48 3193.08 1073.5 3195.22 1073.66 3195.49 1073.67 3197.52 1073.78 3196.52 1073.69 3198.49 1073.95 3198.27 1073.92 3200.35 1074.23 3199.99 1074.17 3202.02 1074.53 3201.82 1074.5 3204.21 1074.96 3204.21 1074.96 3206.86 1075.48 3206.58 1075.42 3209.17 1076 3209.17 1076 3211.77 1076.57 3211.56 1076.52 3213.74 1077.04 3214.13 1077.12 3216.16 1077.54 3216.41 1077.59 3218.38 1077.95 3217.93 1077.86 3219.8 1078.28 3219.99 1078.32 3221.76 1078.68 3221.61 1078.65 3223.27 1079.01 3223.19 1078.99 3224.8 1079.36 3224.62 1079.32 3226.13 1079.68 3225.84 1079.61 3227.39 1080.02 3226.94 1079.89 3228.29 1080.31 3228.14 1080.26 3229.59 1080.73 3229.83 1080.8 3231.39 1081.27 3231.39 1081.27 3232.95 1081.73 3233.6 1081.91 3235.31 1082.33 3235.13 1082.28 3236.74 1082.7 3236.62 1082.66 3237.97 1083.03 3238.57 1083.17 3239.76 1083.43 3238.24 1083 3239.13 1083.31 3239.86 1083.55 3240.59 1083.76 3240.34 1083.68 3241.02 1083.89 3241.26 1083.96 3241.99 1084.17 3241.03 1083.85 3241.86 1084.17 3242.91 1084.51 3243.85 1084.77 3243.66 1084.72 3244.55 1084.98 3244.34 1084.91 3245.18 1085.17 3244.7 1085.01 3245.42 1085.27 3246.42 1085.58 3247.2 1085.79 3247.8 1085.94 3248.53 1086.09 3248.53 1086.09 3249.26 1086.25 3250.12 1086.4 3250.84 1086.5 3249.31 1086.19 3249.88 1086.34 3250.94 1086.58 3251.51 1086.69 3251.51 1086.69C3252.26 1086.82 3253.01 1086.89 3253.77 1086.89L3254.34 1086.89 3252.09 1086.69 3252.66 1086.79 3252.66 1086.79 3253.23 1086.9 3251.78 1086.54 3252.45 1086.75 3252.17 1086.66 3252.8 1086.87 3254.14 1087.24 3254.87 1087.39 3254.05 1087.19 3254.78 1087.39 3255.6 1087.6 3256.32 1087.75 3257.18 1087.91 3257.91 1088.01 3255.71 1087.49 3256.33 1087.7 3257.48 1088.02 3258.16 1088.18 3258.35 1088.22 3259.08 1088.38 3258.66 1088.28 3259.29 1088.44 3260.27 1088.64 3260.89 1088.75 3257.33 1087.59 3257.75 1087.8 3252.44 1082.78 3252.65 1083.14 3255.8 1066.97 3255.08 1067.55 3255.69 1067.09 3255.01 1067.56 3258.2 1065.97 3256.64 1066.49 3257.1 1066.34 3255.85 1066.71 3256.32 1066.58 3254.66 1067 3254.34 1067.08 3252.47 1067.6 3252.29 1067.65 3250.52 1068.17 3249.34 1068.59 3247.67 1069.26 3246.44 1069.84 3245.09 1070.57 3243.84 1071.34 3242.8 1072.07 3242.46 1072.31 3241.43 1073.09 3241.43 1073.09 3240.39 1073.87 3241.46 1073.15 3240.16 1073.93 3240.4 1073.79 3238.94 1074.62 3239.41 1074.36 3237.8 1075.2 3238.37 1074.92 3236.65 1075.7 3236.75 1075.66 3234.88 1076.49 3235.83 1076.11 3233.75 1076.84 3233.75 1076.84 3231.68 1077.57 3232.38 1077.34 3230.56 1077.86 3229.78 1078.11 3228.33 1078.63 3227.35 1079.03 3226.21 1079.55 3225.79 1079.75 3224.64 1080.32 3223.08 1081.25 3221.89 1082.08 3222.09 1081.94 3220.69 1082.87 3220 1083.37 3218.64 1084.41 3218.83 1084.27 3217.42 1085.31 3216.02 1086.35 3215.6 1086.67 3214.25 1087.76 3215.18 1087.08 3213.78 1088.02 3213.78 1088.02 3212.37 1088.95 3212.94 1088.6 3211.54 1089.43 3212.49 1088.92 3211.09 1089.59 3211.4 1089.45 3209.9 1090.12 3210.44 1089.89 3208.99 1090.46 3209.22 1090.37 3207.82 1090.89 3208.07 1090.8 3206.72 1091.27 3207.31 1091.08 3206.07 1091.45 3205.26 1091.71 3203.7 1092.28 3203.95 1092.19 3202.13 1092.82 3201.33 1093.12 3199.35 1093.96 3199.28 1093.99 3197.09 1094.92 3197.13 1094.91 3195.05 1095.79 3194.46 1096.06 3192.32 1097.1 3192.78 1096.89 3190.65 1097.83 3190.2 1098.03 3188.17 1099.02 3188.41 1098.91 3186.38 1099.84 3186.98 1099.59 3185.17 1100.31 3184.97 1100.39 3183.36 1101.07 3183.86 1100.87 3182.46 1101.39 3182.24 1101.47 3181.04 1101.94 3181.28 1101.85 3180.29 1102.22 3180.49 1102.15 3179.45 1102.51 3179.25 1102.58 3178.27 1102.94 3178.86 1102.74 3178.03 1103 3176.99 1103.38 3176.11 1103.74 3177.15 1103.36 3176.32 1103.62 3177.19 1103.39 3176.31 1103.59 3175.4 1103.84 3174.41 1104.15 3174.65 1104.08 3173.77 1104.34 3172.27 1104.89 3171.44 1105.25 3172.51 1104.84 3171.73 1105.1 3171.03 1105.35 3170.25 1105.67 3171.87 1105.14 3171.04 1105.35 3169.91 1105.69 3169.02 1106 3168.65 1106.14 3167.71 1106.51 3166.41 1107.1 3165.42 1107.62 3165.42 1107.62 3164.44 1108.14 3163.58 1108.64 3162.59 1109.26 3162.59 1109.26 3161.6 1109.88 3162.02 1109.63 3161.03 1110.2 3160.95 1110.25 3160.07 1110.77 3161.78 1109.93 3161 1110.24 3161.7 1109.98 3161.07 1110.19 3162.59 1109.79 3162.07 1109.89 3162.07 1109.89C3160.97 1110.11 3159.9 1110.48 3158.9 1110.98L3158.49 1111.19 3161.07 1110.23 3160.44 1110.39 3160.44 1110.39C3159.37 1110.66 3158.34 1111.06 3157.38 1111.6L3156.91 1111.86 3157.39 1111.6 3156.77 1111.92 3156.29 1112.17 3155.82 1112.43 3155.82 1112.43C3155.08 1112.84 3154.38 1113.33 3153.74 1113.88L3153.37 1114.19 3155.94 1112.49 3155.42 1112.75 3155.42 1112.75 3154.9 1113.01 3155.86 1112.58 3155.34 1112.79 3157.95 1112.06 3157.32 1112.16 3157.32 1112.16C3156.56 1112.29 3155.81 1112.48 3155.09 1112.75L3154.51 1112.96 3155.76 1112.57 3155.14 1112.73 3155.94 1112.56 3155.37 1112.66 3155.15 1112.7 3154.64 1112.8 3155.54 1112.66 3155.13 1112.71 3155.13 1112.71C3148.22 1113.57 3143.32 1119.87 3144.18 1126.78 3145.05 1133.69 3151.35 1138.59 3158.25 1137.72 3160.69 1137.42 3162.98 1136.41 3164.85 1134.82L3165.89 1133.94 3165.89 1133.94C3166.79 1133.18 3167.57 1132.3 3168.22 1131.32L3168.53 1130.86 3165.6 1133.95 3167.27 1132.7 3167.27 1132.7C3167.89 1132.23 3168.47 1131.71 3169 1131.13L3169.57 1130.51 3168.06 1131.9 3168.79 1131.33 3168.88 1131.26 3169.66 1130.64 3170.44 1129.96 3171.37 1129.08 3170.96 1129.45 3172.1 1128.47 3172.99 1127.62 3174.03 1126.53 3173.81 1126.75 3174.91 1125.66 3175.97 1124.45 3176.85 1123.31 3177.36 1122.59 3178.3 1121.19 3178.14 1121.43 3179.23 1119.87 3179.34 1119.71 3180.43 1118.1 3179.99 1118.71 3181.02 1117.36 3180.96 1117.45 3181.9 1116.25 3182.6 1115.25 3183.33 1114.11 3183.58 1113.69 3184.31 1112.44 3184.6 1111.92 3185.22 1110.73 3184.86 1111.38 3185.48 1110.34 3184.24 1112.06 3184.87 1111.33 3185.66 1110.3 3186.13 1109.63 3185.52 1110.44 3185.99 1109.86 3186.14 1109.67 3186.71 1108.94 3186.71 1108.94 3187.29 1108.21 3186.29 1109.34 3187.01 1108.61 3187.59 1108 3188.32 1107.17 3187.74 1107.78 3188.52 1107 3188.21 1107.3 3188.99 1106.58 3188.97 1106.6 3189.69 1105.92 3189.37 1106.21 3190.15 1105.53 3190.15 1105.53 3190.93 1104.86 3191.28 1104.55 3192.05 1103.82 3192.09 1103.79 3192.98 1102.95 3192.99 1102.94 3193.93 1102.06 3193.68 1102.28 3194.67 1101.4 3194.38 1101.65 3195.37 1100.82 3195.65 1100.57 3196.64 1099.69 3196.05 1100.19 3197.03 1099.41 3197.29 1099.2 3198.23 1098.42 3198.46 1098.22 3199.29 1097.49 3198.32 1098.26 3199.04 1097.74 3199.04 1097.74C3199.61 1097.34 3200.14 1096.89 3200.63 1096.4L3201.25 1095.78 3200.41 1096.55 3201.03 1096.03 3201.11 1095.97 3201.78 1095.39 3201.51 1095.61 3202.29 1094.99 3203 1094.38 3203.72 1093.71 3203.35 1094.04 3204.08 1093.42 3205.2 1092.33 3205.72 1091.76 3204.83 1092.65 3205.35 1092.18 3205.29 1092.23 3205.76 1091.81 3205.45 1092.08 3205.76 1091.82 3206.61 1091.05 3206.97 1090.68 3206.13 1091.45 3206.44 1091.19 3206.44 1091.19C3207.27 1090.5 3208 1089.71 3208.63 1088.84L3208.89 1088.47 3209.44 1087.63 3209.75 1087.11 3209.43 1087.62 3209.74 1087.15 3210.06 1086.64 3210.37 1086.12 3209.51 1087.38 3209.88 1086.91 3209.88 1086.91C3210.39 1086.26 3210.83 1085.55 3211.2 1084.81L3211.41 1084.39 3211.08 1085.01 3211.29 1084.65 3210.83 1085.38 3211.14 1084.92 3210.91 1085.25 3211.17 1084.89 3210.4 1085.86 3210.77 1085.45 3209.48 1086.72 3209.85 1086.4 3208.32 1087.52 3208.74 1087.26 3205.68 1088.65 3206.2 1088.49 3205.64 1088.65 3206.05 1088.54 3203 1088.92 3203.62 1088.92 3204.14 1088.92 3204.71 1088.92 3205.23 1088.92 3200.11 1087.83 3200.58 1088.04 3194.18 1081.64 3194.39 1082.11 3193.5 1079.24 3193.61 1079.82 3193.53 1075.78 3193.43 1076.51 3194.32 1073.32 3194.01 1074.05 3197.52 1069.33 3196.28 1070.37 3196.63 1070.09 3194.55 1071.7 3194.67 1071.61 3191.92 1073.69 3191.9 1073.7 3188.88 1075.99 3188.39 1076.38 3185.79 1078.56 3186.26 1078.19 3184.08 1079.85 3183.6 1080.24 3181.62 1081.9 3181.84 1081.73 3179.97 1083.23 3180.22 1083.04 3178.45 1084.39 3178.69 1084.21 3176.98 1085.45 3176.88 1085.52 3175.27 1086.72 3175.06 1086.88 3173.45 1088.12 3172.72 1088.74 3171.11 1090.19 3170.81 1090.47 3169.35 1091.87 3169.02 1092.21 3167.72 1093.56 3167.67 1093.62 3166.68 1094.66 3166.9 1094.43 3166.18 1095.15 3167.3 1094.15 3166.57 1094.73 3167.37 1094.15 3166.75 1094.57 3166.17 1094.97 3165.55 1095.44 3164.68 1096.15 3164.16 1096.62 3163.22 1097.56 3162.76 1098.08 3163.21 1097.6 3162.64 1098.17 3163.04 1097.79 3162.41 1098.36 3162.73 1098.08 3162 1098.7 3161.29 1099.36 3160.56 1100.09 3160.24 1100.43 3159.56 1101.15 3160.28 1100.44 3159.66 1101.01 3158.42 1102.32 3157.95 1102.89 3159.28 1101.5 3158.76 1101.97 3158.28 1102.43 3157.81 1102.9 3157.4 1103.33 3156.88 1103.9 3157.83 1102.96 3157.36 1103.38 3157.36 1103.38 3156.89 1103.79 3156.97 1103.73 3156.55 1104.09 3155.94 1104.66 3155.52 1105.08 3155.52 1105.08 3155.11 1105.49 3156.04 1104.65 3155.47 1105.12 3155.07 1105.45 3154.61 1105.87 3155.24 1105.34 3154.77 1105.71 3154.95 1105.57 3154.53 1105.88 3153.89 1106.4 3153.53 1106.71 3154.17 1106.19 3153.75 1106.51 3153.75 1106.51 3153.34 1106.82 3154.78 1105.88 3154.31 1106.14 3154.4 1106.1 3153.83 1106.41 3153.18 1106.78 3152.77 1107.04 3152.12 1107.48 3151.76 1107.74 3151.76 1107.74C3151.19 1108.14 3150.66 1108.59 3150.17 1109.08L3149.75 1109.5 3149.32 1109.95 3148.33 1111.04 3148.44 1110.92 3147.77 1111.65 3147.89 1111.52 3146.79 1112.67 3147.93 1111.62 3147.36 1112.08 3147.93 1111.64 3147.35 1112.06 3146.57 1112.68 3146.2 1113 3147.41 1112.08 3147.1 1112.29 3148.97 1111.26 3148.51 1111.46 3146.94 1112.29 3146.53 1112.55 3150.96 1110.84 3150.38 1110.94 3150.38 1110.94C3148.56 1111.28 3146.82 1112.01 3145.31 1113.09L3144.95 1113.35 3144.95 1113.35C3139.28 1117.4 3137.97 1125.27 3142.02 1130.93 3146.06 1136.6 3153.94 1137.91 3159.6 1133.86 3159.77 1133.74 3159.94 1133.61 3160.11 1133.48L3161.61 1132.29 3159.7 1133.54 3162.14 1132.24 3162.5 1132.04 3164.94 1130.64 3164.96 1130.63 3167.67 1129.07 3167.24 1129.3 3170.2 1127.74 3170.12 1127.78 3173.14 1126.23 3173.41 1126.08 3176.63 1124.31 3176.84 1124.2 3180.01 1122.38 3179.89 1122.44 3182.96 1120.73 3183.2 1120.59 3186.11 1118.87 3186.09 1118.88 3188.48 1117.48 3188.63 1117.4 3190.86 1116.05 3191.29 1115.78 3194.35 1113.75 3193.53 1114.25 3195.4 1113.21 3196.14 1112.76 3197.18 1112.09 3198.19 1111.36 3198.71 1110.94 3199.75 1110.02 3200.06 1109.7 3200.06 1109.7C3201.02 1108.75 3201.81 1107.64 3202.42 1106.43L3202.63 1106.01 3200.92 1108.58 3201.24 1108.21 3201.42 1107.99 3201.89 1107.42 3202.12 1107.12 3202.64 1106.45 3202.82 1106.22 3203.39 1105.44 3203.52 1105.25 3204.15 1104.37 3203.53 1105.17 3204.31 1104.23 3204.86 1103.53 3206.73 1100.93 3206.58 1101.13 3207.83 1099.47 3207.83 1099.47 3209.86 1096.76 3209.66 1097.03 3210.64 1095.78 3210.13 1096.39 3211.06 1095.35 3211.06 1095.35C3211.54 1094.82 3211.97 1094.25 3212.35 1093.65L3212.98 1092.66 3213.46 1091.83 3213.93 1090.94 3214.06 1090.68 3214.42 1089.95 3213.1 1092.06 3213.46 1091.59 3210 1094.66 3210.26 1094.5 3209.41 1094.97 3209.62 1094.86 3209.62 1094.86C3215.84 1091.75 3218.36 1084.17 3215.25 1077.95 3212.13 1071.73 3204.57 1069.21 3198.35 1072.32L3198.14 1072.42 3197.29 1072.89 3197.03 1073.04 3197.03 1073.04C3195.7 1073.84 3194.52 1074.88 3193.57 1076.11L3193.2 1076.58 3193.2 1076.58C3192.69 1077.23 3192.25 1077.94 3191.88 1078.68L3191.51 1079.41 3191.65 1079.15 3191.18 1080.03 3191.66 1079.2 3191.04 1080.19 3192.33 1078.48 3191.39 1079.52 3190.88 1080.13 3189.89 1081.38 3189.69 1081.64 3187.66 1084.34 3187.66 1084.34 3186.42 1086.01 3186.27 1086.2 3184.4 1088.8 3184.95 1088.1 3184.17 1089.03 3183.55 1089.83 3182.93 1090.72 3183.06 1090.53 3182.49 1091.31 3182.66 1091.08 3182.14 1091.76 3182.38 1091.46 3181.91 1092.03 3182.1 1091.81 3181.78 1092.17 3181.78 1092.17C3181.11 1092.96 3180.54 1093.82 3180.08 1094.74L3179.87 1095.15 3182.23 1091.88 3181.92 1092.19 3182.96 1091.26 3182.44 1091.68 3183.45 1090.95 3182.41 1091.63 3183.15 1091.18 3181.28 1092.22 3180.45 1092.72 3177.39 1094.75 3177.82 1094.47 3175.58 1095.83 3175.72 1095.74 3173.33 1097.14 3173.31 1097.16 3170.4 1098.87 3170.65 1098.73 3167.58 1100.44 3167.46 1100.51 3164.29 1102.33 3164.51 1102.21 3161.28 1103.98 3161.55 1103.84 3158.54 1105.39 3158.46 1105.44 3155.5 1106.99 3155.07 1107.23 3152.37 1108.79 3152.39 1108.78 3149.94 1110.18 3150.3 1109.98 3147.86 1111.28 3147.86 1111.28C3147.19 1111.64 3146.55 1112.06 3145.95 1112.53L3144.44 1113.73 3144.44 1113.73C3138.99 1118.06 3138.07 1125.98 3142.4 1131.44 3146.57 1136.7 3154.14 1137.76 3159.6 1133.86L3159.96 1133.6 3154.89 1135.75 3155.46 1135.64 3155.46 1135.64C3157.03 1135.36 3158.54 1134.78 3159.89 1133.93L3160.31 1133.67 3158.74 1134.5 3159.21 1134.29 3159.21 1134.29C3159.86 1134 3160.49 1133.66 3161.08 1133.26L3161.4 1133.05 3162.61 1132.14 3162.97 1131.82 3162.18 1132.45 3162.75 1132.03 3163.32 1131.59 3163.89 1131.13 3165.03 1130.07 3166.12 1128.93 3166.24 1128.8 3166.91 1128.08 3167.02 1127.96 3168.01 1126.86 3167.58 1127.32 3167.99 1126.91 3166.41 1128.25 3166.77 1127.99 3166.13 1128.42 3166.54 1128.16 3165.9 1128.54 3166.47 1128.23 3166.55 1128.18 3167.02 1127.92 3168.46 1126.98 3168.88 1126.67 3168.88 1126.67 3169.29 1126.36 3169.93 1125.85 3170.3 1125.54 3169.66 1126.05 3170.07 1125.74 3170.25 1125.6 3170.72 1125.24 3171.35 1124.71 3171.82 1124.29 3171.43 1124.63 3172 1124.16 3172.93 1123.32 3173.35 1122.9 3173.35 1122.9 3173.76 1122.49 3173.15 1123.06 3173.57 1122.7 3173.64 1122.63 3174.11 1122.22 3174.11 1122.22 3174.57 1121.8 3175.53 1120.86 3176.05 1120.29 3175.63 1120.72 3176.1 1120.25 3175.62 1120.71 3176.14 1120.24 3176.14 1120.24C3176.62 1119.81 3177.06 1119.35 3177.46 1118.85L3177.93 1118.28 3176.69 1119.59 3177.32 1119.02 3178.04 1118.31 3178.71 1117.58 3178.39 1117.91 3179.12 1117.19 3178.41 1117.84 3179.13 1117.22 3179.45 1116.94 3180.07 1116.37 3180.47 1115.99 3181.04 1115.42 3181.49 1114.94 3181.96 1114.42 3181.03 1115.36 3181.54 1114.89 3180.68 1115.6 3181.3 1115.14 3180.73 1115.54 3181.35 1115.12 3182.15 1114.55 3182.87 1113.98 3184 1112.98 3184.73 1112.25 3184.95 1112.02 3185.94 1110.98 3185.89 1111.03 3187.19 1109.68 3186.85 1110.02 3188.31 1108.62 3188.01 1108.9 3189.62 1107.44 3188.88 1108.06 3190.5 1106.81 3190.29 1106.96 3191.9 1105.77 3191.8 1105.84 3193.52 1104.59 3193.76 1104.41 3195.53 1103.06 3195.78 1102.86 3197.65 1101.36 3197.86 1101.18 3199.84 1099.52 3199.36 1099.9 3201.54 1098.24 3202.01 1097.87 3204.61 1095.68 3204.12 1096.07 3207.13 1093.79 3207.11 1093.81 3209.86 1091.73 3209.99 1091.63 3212.07 1090.02 3212.42 1089.74 3213.66 1088.7 3213.66 1088.7C3215.19 1087.43 3216.4 1085.81 3217.18 1083.98L3217.49 1083.25 3217.49 1083.25C3217.93 1082.24 3218.23 1081.17 3218.38 1080.07L3218.49 1079.34 3218.49 1079.34C3218.68 1078 3218.65 1076.64 3218.41 1075.31L3218.31 1074.73 3218.31 1074.73C3218.13 1073.75 3217.83 1072.79 3217.42 1071.87L3217.22 1071.4 3217.22 1071.4C3215.95 1068.55 3213.67 1066.27 3210.82 1065L3210.35 1064.8 3210.35 1064.8C3208.74 1064.08 3206.99 1063.71 3205.23 1063.71L3204.71 1063.71 3204.14 1063.71 3203.62 1063.71 3203 1063.71 3203 1063.71C3201.96 1063.71 3200.94 1063.84 3199.94 1064.09L3199.52 1064.19 3198.96 1064.35 3198.44 1064.5 3198.44 1064.5C3197.36 1064.82 3196.33 1065.29 3195.38 1065.89L3194.96 1066.15 3193.44 1067.26 3193.08 1067.58 3191.79 1068.85 3191.43 1069.26 3190.66 1070.24 3190.4 1070.6 3190.17 1070.93 3189.86 1071.4 3189.4 1072.14 3189.19 1072.5 3188.86 1073.12 3188.66 1073.54 3189.98 1071.43 3189.62 1071.9 3188.76 1073.16 3188.45 1073.67 3188.77 1073.17 3188.45 1073.64 3188.13 1074.14 3187.82 1074.66 3188.37 1073.82 3188.11 1074.18 3190.3 1071.83 3189.99 1072.09 3189.15 1072.86 3188.78 1073.22 3189.63 1072.45 3189.31 1072.71 3189.01 1072.97 3188.54 1073.39 3188.48 1073.44 3187.96 1073.91 3187.07 1074.8 3186.55 1075.37 3187.67 1074.28 3186.95 1074.9 3186.57 1075.24 3185.84 1075.91 3186.55 1075.31 3185.77 1075.93 3185.5 1076.15 3184.82 1076.72 3184.9 1076.66 3184.27 1077.18 3183.43 1077.95 3182.81 1078.57 3184.39 1077.23 3183.66 1077.75 3182.69 1078.52 3181.86 1079.25 3182.09 1079.05 3181.15 1079.83 3181.41 1079.62 3180.43 1080.4 3179.83 1080.9 3178.84 1081.78 3179.13 1081.54 3178.14 1082.37 3177.86 1082.62 3176.87 1083.5 3176.62 1083.73 3175.68 1084.61 3175.7 1084.6 3174.82 1085.43 3174.85 1085.39 3174.08 1086.12 3174.42 1085.81 3173.64 1086.49 3173.64 1086.49 3172.86 1087.16 3172.54 1087.45 3171.81 1088.12 3171.79 1088.15 3171.01 1088.87 3170.7 1089.18 3169.92 1089.96 3169.34 1090.57 3168.62 1091.4 3169.19 1090.79 3168.46 1091.52 3167.46 1092.64 3166.89 1093.37 3166.89 1093.37 3166.32 1094.1 3166.48 1093.9 3166.01 1094.47 3165.4 1095.28 3164.93 1095.96 3165.73 1094.93 3165.1 1095.65 3165.1 1095.65C3164.64 1096.19 3164.23 1096.77 3163.86 1097.37L3163.24 1098.41 3162.87 1099.07 3162.25 1100.26 3162.54 1099.74 3161.81 1100.99 3162.06 1100.57 3161.34 1101.72 3162.04 1100.71 3161.11 1101.91 3161.04 1101.99 3160 1103.34 3159.56 1103.96 3158.47 1105.57 3158.58 1105.41 3157.49 1106.97 3157.33 1107.21 3156.39 1108.61 3156.9 1107.9 3156.02 1109.04 3157.08 1107.83 3155.99 1108.92 3155.77 1109.14 3154.74 1110.24 3155.62 1109.39 3154.48 1110.38 3154.06 1110.75 3153.13 1111.64 3153.91 1110.96 3153.13 1111.58 3153.22 1111.51 3152.49 1112.08 3152.49 1112.08C3151.95 1112.51 3151.45 1112.97 3150.99 1113.48L3150.41 1114.1 3152.14 1112.53 3150.48 1113.78 3150.48 1113.78C3149.34 1114.64 3148.35 1115.68 3147.55 1116.87L3147.24 1117.34 3149.57 1114.73 3148.53 1115.61 3148.53 1115.61C3143.22 1120.12 3142.58 1128.08 3147.09 1133.38 3149.84 1136.62 3154.04 1138.25 3158.25 1137.72L3158.67 1137.67 3159.58 1137.52 3160.1 1137.42 3159.88 1137.46 3160.45 1137.36 3161.26 1137.18 3161.88 1137.03 3163.13 1136.65 3163.7 1136.44 3161.47 1137.03 3162.09 1136.92 3162.09 1136.92C3162.98 1136.77 3163.86 1136.53 3164.7 1136.19L3165.22 1135.98 3166.17 1135.55 3166.69 1135.29 3166.69 1135.29 3167.21 1135.03 3167.21 1135.03C3168.13 1134.57 3169 1134 3169.78 1133.33L3170.14 1133.02 3168.06 1134.47 3168.53 1134.21 3168.04 1134.46 3168.67 1134.15 3169.15 1133.9 3169.62 1133.64 3166.56 1134.85 3167.18 1134.69 3167.18 1134.69C3168.07 1134.47 3168.94 1134.15 3169.76 1133.74L3170.18 1133.53 3167.01 1134.61 3167.53 1134.51 3169.04 1134.11 3169.67 1133.9 3170.36 1133.64 3171.14 1133.33 3171.14 1133.33C3171.73 1133.1 3172.3 1132.82 3172.85 1132.49L3173.73 1131.97 3173.66 1132.02 3174.65 1131.45 3175.06 1131.2 3176.05 1130.57 3176.05 1130.57 3177.04 1129.95 3176.18 1130.45 3177.16 1129.93 3177.16 1129.93 3178.15 1129.41 3176.85 1130 3177.79 1129.64 3177.41 1129.77 3178.3 1129.46 3177.16 1129.8 3177.99 1129.6 3179.61 1129.07 3180.39 1128.76 3179.7 1129.01 3180.48 1128.75 3181.54 1128.34 3182.37 1127.98 3180.88 1128.53 3181.76 1128.27 3182 1128.19 3182.99 1127.88 3182.08 1128.13 3182.96 1127.92 3183.84 1127.68 3184.67 1127.42 3185.71 1127.05 3186.59 1126.69 3185.55 1127.06 3186.38 1126.8 3186.98 1126.6 3187.97 1126.23 3187.77 1126.3 3188.81 1125.94 3189.01 1125.87 3189.99 1125.51 3190.23 1125.42 3191.43 1124.95 3191.21 1125.03 3192.61 1124.51 3193.11 1124.32 3194.72 1123.64 3194.53 1123.72 3196.35 1122.99 3196.95 1122.73 3198.97 1121.8 3199.21 1121.68 3201.24 1120.7 3200.79 1120.91 3202.92 1119.97 3203.38 1119.76 3205.51 1118.72 3204.91 1118.99 3206.99 1118.11 3207.02 1118.09 3209.21 1117.16 3209.13 1117.19 3211.11 1116.36 3210.3 1116.66 3212.12 1116.04 3212.38 1115.95 3213.93 1115.38 3213.12 1115.65 3214.37 1115.28 3214.97 1115.09 3216.32 1114.62 3216.57 1114.53 3217.97 1114.01 3218.21 1113.93 3219.66 1113.35 3220.21 1113.12 3221.71 1112.45 3222.03 1112.3 3223.43 1111.63 3224.39 1111.11 3225.79 1110.28 3226.36 1109.93 3227.76 1108.99 3227.76 1108.99 3229.16 1108.06 3230.09 1107.37 3231.44 1106.28 3231.02 1106.61 3232.43 1105.57 3233.83 1104.53 3234.01 1104.39 3235.36 1103.35 3234.67 1103.85 3236.07 1102.91 3236.28 1102.77 3237.48 1101.94 3235.92 1102.87 3237.06 1102.29 3236.64 1102.5 3237.78 1101.98 3236.8 1102.37 3238.26 1101.85 3237.48 1102.1 3239.3 1101.58 3240 1101.36 3242.08 1100.63 3242.08 1100.63 3244.16 1099.9 3245.12 1099.52 3246.99 1098.69 3247.08 1098.65 3248.8 1097.87 3249.36 1097.6 3250.97 1096.76 3251.45 1096.51 3252.9 1095.68 3253.13 1095.54 3254.43 1094.76 3255.51 1094.04 3256.55 1093.26 3256.55 1093.26 3257.59 1092.48 3257.25 1092.72 3258.29 1091.99 3257.04 1092.76 3258.39 1092.04 3257.16 1092.62 3258.82 1091.94 3257.64 1092.36 3259.4 1091.84 3259.22 1091.89 3261.09 1091.37 3260.78 1091.45 3262.44 1091.04 3262.91 1090.91 3264.16 1090.54 3264.61 1090.4 3266.17 1089.88 3266.17 1089.88C3267.31 1089.5 3268.38 1088.97 3269.36 1088.29L3270.04 1087.82 3270.65 1087.37 3271.38 1086.8 3271.38 1086.8C3276.29 1082.94 3277.63 1076.06 3274.53 1070.63L3274.33 1070.27 3274.33 1070.27C3273.09 1068.11 3271.25 1066.36 3269.02 1065.25L3268.6 1065.04 3268.6 1065.04C3267.48 1064.48 3266.28 1064.09 3265.04 1063.88L3264.42 1063.78 3265.4 1063.98 3264.78 1063.83 3264.36 1063.73 3263.63 1063.57 3263.83 1063.62 3263.15 1063.46 3264.3 1063.78 3263.68 1063.58 3263.68 1063.58C3262.96 1063.34 3262.22 1063.16 3261.48 1063.06L3260.75 1062.95 3261.61 1063.11 3260.88 1062.95 3261.7 1063.16 3260.97 1062.95 3260.15 1062.74 3259.42 1062.59 3260.77 1062.95 3260.14 1062.75 3259.87 1062.66 3259.19 1062.45 3257.74 1062.09 3257.17 1061.99 3257.17 1061.99 3256.59 1061.89 3256.59 1061.89C3255.85 1061.75 3255.1 1061.68 3254.34 1061.68L3253.77 1061.68 3256.02 1061.89 3255.45 1061.78 3256.51 1062.02 3255.94 1061.87 3254.41 1061.55 3253.68 1061.45 3254.54 1061.6 3253.81 1061.44 3253.81 1061.44 3253.08 1061.29 3253.69 1061.43 3252.91 1061.23 3253.9 1061.53 3253.18 1061.27 3252.69 1061.11 3251.86 1060.85 3251.66 1060.79 3250.78 1060.53 3250.59 1060.48 3249.66 1060.22 3250.71 1060.56 3249.88 1060.25 3248.92 1059.93 3248.19 1059.73 3248.43 1059.8 3247.76 1059.59 3247.51 1059.52 3246.79 1059.31 3247.52 1059.54 3246.63 1059.23 3245.12 1058.8 3243.92 1058.54 3244.52 1058.69 3243.17 1058.32 3243.04 1058.29 3241.43 1057.87 3241.25 1057.83 3239.54 1057.41 3240.19 1057.59 3238.63 1057.12 3238.63 1057.12 3237.07 1056.65 3237.31 1056.73 3235.85 1056.26 3235.7 1056.21 3234.35 1055.8 3233.89 1055.66 3232.33 1055.25 3232.04 1055.18 3230.53 1054.81 3230.35 1054.77 3228.74 1054.41 3228.66 1054.39 3227 1054.02 3226.84 1053.99 3225.08 1053.63 3225.27 1053.67 3223.4 1053.25 3222.95 1053.16 3220.97 1052.8 3221.22 1052.85 3219.2 1052.43 3219.58 1052.52 3217.4 1052 3217.19 1051.95 3214.59 1051.38 3214.59 1051.38 3211.99 1050.8 3211.71 1050.75 3209.06 1050.23 3209.05 1050.22 3206.66 1049.76 3206.47 1049.72 3204.44 1049.36 3204.09 1049.3 3202.01 1048.99 3201.78 1048.95 3199.81 1048.69 3198.81 1048.6 3196.78 1048.5 3197.05 1048.52 3194.92 1048.36 3195.23 1048.39 3193.1 1048.18 3193.04 1048.17 3190.81 1047.97 3190.56 1047.95 3188.43 1047.79 3189.33 1047.89 3187.2 1047.58 3186.49 1047.49 3184.72 1047.34 3185.62 1047.45 3184.01 1047.19 3184.64 1047.31 3183.19 1047 3183.22 1047 3182.03 1046.74 3181.82 1046.7 3180.52 1046.44 3179.97 1046.34 3178.62 1046.14 3178.22 1046.08 3176.5 1045.87 3176.55 1045.88 3174.47 1045.62 3175.06 1045.71 3172.67 1045.29 3173.03 1045.36 3170.49 1044.84 3170.61 1044.87 3167.7 1044.24 3167.67 1044.24 3164.24 1043.51 3163.84 1043.43 3160.04 1042.75 3159.68 1042.69 3155.47 1042.07 3155.52 1042.08 3151.41 1041.45 3151.45 1041.46 3147.76 1040.89 3148.07 1040.94 3143.76 1040.16 3143.25 1040.08 3141.38 1039.82 3141.29 1039.81 3139.31 1039.55 3139.31 1039.55C3132.41 1038.64 3126.08 1043.5 3125.17 1050.4 3124.55 1055.16 3126.68 1059.87 3130.68 1062.53L3130.99 1062.74 3129.61 1061.67 3130.08 1062.09 3131.04 1062.86 3131.61 1063.28 3129.65 1061.52 3130.12 1062.04 3130.58 1062.52 3131.04 1062.98 3131.04 1062.98C3131.63 1063.57 3132.28 1064.1 3132.97 1064.56L3133.43 1064.87 3132.12 1063.87 3132.54 1064.23 3132.47 1064.17 3132.93 1064.58 3133.43 1065.01 3133.95 1065.42 3132.92 1064.49 3133.44 1065.01 3133.44 1065.01 3133.9 1065.48 3134.75 1066.25 3135.37 1066.77 3135.65 1067 3136.38 1067.57 3135.83 1067.11 3136.71 1067.89 3137.34 1068.41 3138.49 1069.29 3138.32 1069.16 3139.62 1070.2 3139.75 1070.31 3141.16 1071.4 3140.83 1071.13 3142.07 1072.17 3141.94 1072.06 3143.03 1073 3143.17 1073.11 3144.1 1073.89 3144.16 1073.93 3145.04 1074.66 3145.04 1074.66C3145.72 1075.22 3146.45 1075.7 3147.22 1076.11L3148.42 1076.73 3147.36 1076.11 3148.56 1076.89 3148.55 1076.89 3149.9 1077.77 3150.08 1077.89 3151.48 1078.77 3150.43 1078.03 3151.63 1078.96 3151.9 1079.17 3153.1 1080.06 3153.49 1080.34 3154.63 1081.12 3154.94 1081.32 3156.24 1082.15 3156.44 1082.28 3158.06 1083.27 3158.49 1083.52 3160.26 1084.51 3159.11 1083.79 3160.73 1084.93 3161.03 1085.14 3162.43 1086.07 3162.82 1086.32 3164.17 1087.15 3164.09 1087.11 3165.34 1087.89 3165.82 1088.17 3167.02 1088.85 3166.33 1088.43 3167.53 1089.21 3166.92 1088.79 3168.12 1089.67 3168.17 1089.71 3169.52 1090.7 3169.63 1090.78 3171.09 1091.82 3170.54 1091.41 3171.84 1092.44 3172.22 1092.74 3173.42 1093.62 3172.98 1093.28 3174.07 1094.17 3174.02 1094.12 3175.16 1095.06 3174.63 1094.6 3175.87 1095.74 3175.67 1095.55 3176.92 1096.74 3175.87 1095.6 3177.01 1097.01 3176.94 1096.92 3178.19 1098.48 3178.27 1098.59 3179.68 1100.3 3179.47 1100.04 3181.08 1102.12 3181.46 1102.58 3183.27 1104.71 3183 1104.38 3184.82 1106.66 3185.11 1107.02 3186.98 1109.2 3187.52 1109.79 3189.39 1111.71 3189.51 1111.83 3191.33 1113.65 3191.92 1114.21 3193.64 1115.72 3193.86 1115.9 3195.47 1117.26 3194.82 1116.67 3196.27 1118.08 3196.63 1118.4 3198.08 1119.7 3198.03 1119.65 3199.64 1121.11 3199.32 1120.81 3200.98 1122.42 3201.14 1122.57 3202.75 1124.08 3202.76 1124.09 3204.32 1125.54 3204.85 1126.01 3206.41 1127.31 3206.92 1127.71 3208.37 1128.8 3208.81 1129.12 3210.63 1130.36 3209.94 1129.86 3211.92 1131.42 3212.17 1131.61 3214.45 1133.32 3214.35 1133.24 3217.47 1135.63 3218.23 1136.17 3219.73 1137.16 3220.46 1137.6 3222.12 1138.54 3222.12 1138.54C3228.19 1141.95 3235.88 1139.8 3239.29 1133.73 3240.87 1130.93 3241.31 1127.62 3240.53 1124.5L3240.43 1124.08 3240.8 1127.14 3240.8 1126.67 3240.8 1126.67C3240.8 1125.75 3240.7 1124.83 3240.5 1123.94L3240.4 1123.47 3240.4 1123.47 3240.3 1123 3240.39 1123.48 3240.29 1122.91 3239.93 1121.46 3239.73 1120.78 3239.84 1121.17 3239.68 1120.6 3239.68 1120.6C3239.51 1119.95 3239.28 1119.32 3239 1118.7L3238.74 1118.13 3238.74 1118.13 3238.48 1117.56 3239.41 1120.52 3239.3 1119.95 3239.44 1120.95 3239.39 1120.43 3239.25 1119.43 3239.15 1118.86 3239.15 1118.86 3239.04 1118.28 3238.69 1116.83 3238.48 1116.16 3238.46 1116.1 3238.2 1115.27 3238.48 1116.3 3238.27 1115.36 3238.3 1115.5 3238.09 1114.51 3238.02 1114.19 3237.76 1113.1 3237.79 1113.22 3237.53 1112.08 3237.68 1112.88 3237.48 1111.58 3237.41 1111.2 3237.15 1109.84 3237.13 1109.75 3236.87 1108.45 3236.71 1107.74 3236.39 1106.55 3236.32 1106.27 3236.01 1105.18 3236.22 1106.04 3236.01 1105.05 3236.08 1105.4 3235.87 1104.25 3235.86 1104.21 3235.6 1102.81 3235.67 1103.22 3235.41 1101.5 3235.31 1100.92 3234.89 1098.84 3234.99 1099.37 3234.63 1097.03 3234.57 1096.7 3234.1 1094.15 3234.14 1094.39 3233.73 1091.85 3233.64 1091.36 3233.12 1088.81 3233.02 1088.38 3232.35 1085.58 3232.31 1085.41 3231.63 1082.76 3231.63 1082.76 3230.96 1080.11 3230.94 1080.04 3230.31 1077.65 3230 1076.64 3229.38 1074.87 3229.65 1075.75 3229.19 1074.04 3229.23 1074.19 3228.86 1072.79 3228.99 1073.31 3228.68 1071.85 3228.76 1072.3 3228.45 1070.54 3228.32 1069.89 3227.85 1067.87 3227.86 1067.89 3227.29 1065.39 3227.24 1065.2 3226.57 1062.45 3226.59 1062.57 3225.97 1059.92 3225.91 1059.68 3225.29 1057.24 3225.21 1056.94 3224.64 1054.91 3224.67 1055.02 3224.2 1053.3 3224.36 1053.98 3224.05 1052.52 3224.2 1053.38 3224 1051.93 3224.09 1052.78 3223.98 1051.37 3223.87 1050.39 3223.66 1049.04 3223.73 1049.56 3223.58 1048.16 3223.47 1047.39 3223.26 1046.2 3223.41 1047.35 3223.3 1046.05 3223.27 1045.66 3223.11 1044.26 3223.12 1044.4 3222.97 1042.84 3222.96 1042.74 3222.75 1040.82 3222.76 1040.88 3222.55 1038.86 3222.59 1039.37 3222.44 1036.83 3222.45 1037.06 3222.34 1034.62 3222.32 1034.21 3222.16 1032.13 3222.2 1033.08 3222.2 1031.36 3222.2 1030.53 3222.2 1029.8 3222.2 1028.19 3222.2 1027.67 3222.14 1026.48 3222.04 1025.39 3222.04 1025.39C3221.38 1018.46 3215.23 1013.37 3208.3 1014.03 3204.52 1014.39 3201.11 1016.43 3199 1019.59L3198.8 1019.9 3198.4 1020.54 3198.03 1021.16 3198.66 1020.19 3198.14 1020.92 3198.01 1021.1 3197.44 1021.93 3197.34 1022.08 3196.93 1022.71 3197.57 1021.82 3197.15 1022.34 3197.15 1022.34C3196.6 1023.04 3196.12 1023.79 3195.72 1024.58L3195.46 1025.1 3195.85 1024.39 3195.49 1025.01 3195.49 1025.01C3195.11 1025.65 3194.8 1026.31 3194.55 1027L3194.18 1027.99 3194.55 1027.1 3193.98 1028.34 3194.59 1027.17 3193.76 1028.57 3193.9 1028.35 3192.96 1029.86 3193.49 1029.07 3192.51 1030.42 3192.4 1030.57 3191.51 1031.82 3191.31 1032.11 3190.38 1033.52 3190.26 1033.69 3189.33 1035.15 3189.33 1035.15 3188.39 1036.6 3188.28 1036.77 3187.35 1038.28 3186.98 1038.92 3186.3 1040.17 3186.24 1040.28 3185.78 1041.16 3185.82 1041.08 3185.45 1041.76 3185.74 1041.25 3185.43 1041.77 3184.97 1042.61 3184.6 1043.34 3184.6 1043.34 3184.13 1044.28 3183.59 1045.54 3183.07 1046.94 3183.53 1045.85 3182.86 1047.25 3182.69 1047.6 3182.07 1049 3182.78 1047.64 3182.16 1048.68 3182.88 1047.6 3182.1 1048.64 3181.93 1048.88 3181.15 1049.97 3181.03 1050.14 3179.99 1051.64 3179.51 1052.4 3178.31 1054.42 3178.01 1054.98 3176.86 1057.16 3176.81 1057.26 3175.72 1059.39 3175.73 1059.37 3174.85 1061.08 3175.37 1060.18 3174.59 1061.42 3175.38 1060.29 3174.6 1061.28 3174.36 1061.6 3173.47 1062.79 3173.74 1062.45 3172.54 1063.96 3172.37 1064.18 3171.07 1065.9 3171.1 1065.86 3169.59 1067.84 3169.88 1067.47 3168.42 1069.24 3168.52 1069.12 3167.12 1070.78 3167.04 1070.88 3165.79 1072.38 3165.38 1072.92 3164.34 1074.32 3163.98 1074.83 3162.83 1076.55 3162.65 1076.83 3161.51 1078.65 3161.51 1078.65 3160.36 1080.47 3160.11 1080.89 3159.12 1082.6 3159.82 1081.53 3158.88 1082.82 3159.03 1082.63 3158.09 1083.87 3157.95 1084.07 3157.01 1085.37 3157.59 1084.63 3156.5 1085.93 3155.82 1086.81 3154.73 1088.37 3154.57 1088.6 3153.64 1090.01 3153.57 1090.1 3152.69 1091.45 3152.75 1091.36 3152.02 1092.45 3151.94 1092.57 3151.27 1093.61 3151.15 1093.8 3150.37 1095.05 3150.18 1095.35 3149.3 1096.86 3149.16 1097.11 3148.12 1098.98 3148.14 1098.94 3146.95 1101.07 3146.99 1100.98 3145.75 1103.16 3145.64 1103.36 3144.44 1105.55 3144.59 1105.29 3143.44 1107.26 3143.87 1106.58 3142.62 1108.45 3142.66 1108.39 3141.26 1110.47 3141.33 1110.36 3139.82 1112.55 3139.82 1112.55C3135.86 1118.27 3137.3 1126.12 3143.02 1130.08 3148.75 1134.04 3156.6 1132.61 3160.56 1126.88 3160.56 1126.88 3160.56 1126.87 3160.57 1126.87Z" fill="#FFC114" fill-rule="nonzero" fill-opacity="1"/></g></g></svg>